999
Dxf file generated by netDxf https://netdxf.codeplex.com, Copyright(C) 2015 Daniel Carvajal, Licensed under LGPL
0
SECTION
2
HEADER
9
$ACADVER
1
AC1015
9
$DWGCODEPAGE
3
ANSI_1254
9
$HANDSEED
5
A0
9
$ANGBASE
50
0.0
9
$ANGDIR
70
0
9
$ATTMODE
70
1
9
$AUNITS
70
0
9
$AUPREC
70
0
9
$CECOLOR
62
256
9
$CELTSCALE
40
1.0
9
$CELTYPE
6
ByLayer
9
$CELWEIGHT
370
-1
9
$CLAYER
8
0
9
$CMLJUST
70
0
9
$CMLSCALE
40
20.0
9
$CMLSTYLE
2
Standard
9
$DIMSTYLE
2
Standard
9
$TEXTSIZE
40
2.5
9
$TEXTSTYLE
7
Standard
9
$LUNITS
70
2
9
$LUPREC
70
4
9
$EXTNAMES
290
1
9
$INSBASE
10
0.0
20
0.0
30
0.0
9
$INSUNITS
70
0
9
$LTSCALE
40
1.0
9
$LWDISPLAY
290
0
9
$PDMODE
70
0
9
$PDSIZE
40
0.0
9
$PLINEGEN
70
0
9
$PSLTSCALE
70
1
9
$TDCREATE
40
2457733.61804049
9
$TDUCREATE
40
2457733.49304049
9
$TDUPDATE
40
2457733.61804049
9
$TDUUPDATE
40
2457733.49304049
9
$TDINDWG
40
0.0
9
$DIMADEC
70
0
9
$DIMAUNIT
70
0
9
$DIMASZ
40
0.18
9
$DIMAZIN
70
0
9
$DIMBLK
1

9
$DIMBLK1
1

9
$DIMBLK2
1

9
$DIMLDRBLK
1

9
$DIMCEN
40
0.09
9
$DIMCLRD
70
0
9
$DIMCLRE
70
0
9
$DIMCLRT
70
0
9
$DIMDEC
70
2
9
$DIMDLE
40
0.0
9
$DIMDLI
40
0.38
9
$DIMDSEP
70
46
9
$DIMEXE
40
0.18
9
$DIMEXO
40
0.0625
9
$DIMGAP
40
0.09
9
$DIMJUST
70
0
9
$DIMLFAC
40
1.0
9
$DIMLUNIT
70
2
9
$DIMLWD
70
-2
9
$DIMLWE
70
-2
9
$DIMPOST
1
<>
9
$DIMRND
40
0.0
9
$DIMSAH
70
0
9
$DIMSCALE
40
1.0
9
$DIMSE1
70
0
9
$DIMSE2
70
0
9
$DIMTAD
70
1
9
$DIMTIH
70
0
9
$DIMTOH
70
0
9
$DIMTXT
40
0.18
9
$DIMZIN
70
0
9
$DIMFRAC
70
0
9
$DIMLTYPE
6
ByBlock
9
$DIMLTEX1
6
ByBlock
9
$DIMLTEX2
6
ByBlock
0
ENDSEC
0
SECTION
2
CLASSES
0
CLASS
1
RASTERVARIABLES
2
AcDbRasterVariables
3
ISM
90
0
280
0
281
0
0
ENDSEC
0
SECTION
2
TABLES
0
TABLE
2
APPID
5
4
330
0
100
AcDbSymbolTable
70
4
0
APPID
5
17
330
4
100
AcDbSymbolTableRecord
100
AcDbRegAppTableRecord
2
ACAD
70
0
0
APPID
5
95
330
4
100
AcDbSymbolTableRecord
100
AcDbRegAppTableRecord
2
AcCmTransparency
70
0
0
APPID
5
96
330
4
100
AcDbSymbolTableRecord
100
AcDbRegAppTableRecord
2
GradientColor1ACI
70
0
0
APPID
5
97
330
4
100
AcDbSymbolTableRecord
100
AcDbRegAppTableRecord
2
GradientColor2ACI
70
0
0
ENDTAB
0
TABLE
2
VPORT
5
1
330
0
100
AcDbSymbolTable
70
1
0
VPORT
5
2
330
1
100
AcDbSymbolTableRecord
100
AcDbViewportTableRecord
2
*Active
70
0
10
0.0
20
0.0
11
1.0
21
1.0
12
0.0
22
0.0
13
0.0
23
0.0
14
0.5
24
0.5
15
10.0
25
10.0
16
0.0
26
0.0
36
1.0
17
0.0
27
0.0
37
0.0
40
10.0
41
1.0
75
0
76
1
0
ENDTAB
0
TABLE
2
LTYPE
5
6
330
0
100
AcDbSymbolTable
70
3
0
LTYPE
5
13
330
6
100
AcDbSymbolTableRecord
100
AcDbLinetypeTableRecord
70
0
2
Continuous
3
Solid line
72
65
73
0
40
0.0
0
LTYPE
5
14
330
6
100
AcDbSymbolTableRecord
100
AcDbLinetypeTableRecord
70
0
2
ByLayer
3

72
65
73
0
40
0.0
0
LTYPE
5
15
330
6
100
AcDbSymbolTableRecord
100
AcDbLinetypeTableRecord
70
0
2
ByBlock
3

72
65
73
0
40
0.0
0
ENDTAB
0
TABLE
2
LAYER
5
5
330
0
100
AcDbSymbolTable
70
1
0
LAYER
5
12
330
5
100
AcDbSymbolTableRecord
100
AcDbLayerTableRecord
2
0
70
0
62
7
6
Continuous
290
1
370
-3
390
0
0
ENDTAB
0
TABLE
2
STYLE
5
7
330
0
100
AcDbSymbolTable
70
1
0
STYLE
5
16
330
7
100
AcDbSymbolTableRecord
100
AcDbTextStyleTableRecord
2
Standard
3
simplex.shx
70
0
71
0
40
0.0
41
1.0
42
0.0
50
0.0
0
ENDTAB
0
TABLE
2
DIMSTYLE
5
8
330
0
100
AcDbSymbolTable
70
1
100
AcDbDimStyleTable
0
DIMSTYLE
105
18
330
8
100
AcDbSymbolTableRecord
100
AcDbDimStyleTableRecord
2
Standard
70
0
3
<>
40
1.0
41
0.18
42
0.0625
43
0.38
44
0.18
45
0.0
46
0.0
73
0
74
0
75
0
76
0
77
1
78
0
79
0
140
0.18
141
0.09
144
1.0
147
0.09
173
0
176
0
177
0
178
0
179
0
271
2
275
0
276
0
277
2
278
46
280
0
340
16
345
15
346
15
347
15
371
-2
372
-2
0
ENDTAB
0
TABLE
2
VIEW
5
3
330
0
100
AcDbSymbolTable
70
0
0
ENDTAB
0
TABLE
2
UCS
5
A
330
0
100
AcDbSymbolTable
70
0
0
ENDTAB
0
TABLE
2
BLOCK_RECORD
5
B
330
0
100
AcDbSymbolTable
70
2
0
BLOCK_RECORD
5
1A
330
B
100
AcDbSymbolTableRecord
100
AcDbBlockTableRecord
2
*Model_Space
340
1E
0
BLOCK_RECORD
5
8F
330
B
100
AcDbSymbolTableRecord
100
AcDbBlockTableRecord
2
*Paper_Space
340
94
0
ENDTAB
0
ENDSEC
0
SECTION
2
BLOCKS
0
BLOCK
5
1C
330
1A
100
AcDbEntity
8
0
100
AcDbBlockBegin
2
*Model_Space
70
0
10
0.0
20
0.0
30
0.0
3
*Model_Space
0
ENDBLK
5
1B
330
1A
100
AcDbEntity
8
0
100
AcDbBlockEnd
0
BLOCK
5
91
330
8F
100
AcDbEntity
8
0
100
AcDbBlockBegin
2
*Paper_Space
70
0
10
0.0
20
0.0
30
0.0
3
*Paper_Space
0
ENDBLK
5
90
330
8F
100
AcDbEntity
8
0
100
AcDbBlockEnd
0
ENDSEC
0
SECTION
2
ENTITIES
0
POLYLINE
5
8E
330
1A
100
AcDbEntity
67
0
8
0
62
256
6
ByLayer
370
-1
48
1.0
60
0
100
AcDb3dPolyline
10
0.0
20
0.0
30
0.0
70
8
75
0
210
0.0
220
0.0
230
1.0
0
VERTEX
5
20
100
AcDbEntity
8
0
62
256
100
AcDbVertex
100
AcDb3dPolylineVertex
10
1229.40002441406
20
68.0999984741211
30
0.0
70
32
0
VERTEX
5
21
100
AcDbEntity
8
0
62
256
100
AcDbVertex
100
AcDb3dPolylineVertex
10
1253.19995117188
20
80.0
30
0.0
70
32
0
VERTEX
5
22
100
AcDbEntity
8
0
62
256
100
AcDbVertex
100
AcDb3dPolylineVertex
10
1272.09997558594
20
144.0
30
0.0
70
32
0
VERTEX
5
23
100
AcDbEntity
8
0
62
256
100
AcDbVertex
100
AcDb3dPolylineVertex
10
1281.59997558594
20
208.100006103516
30
0.0
70
32
0
VERTEX
5
24
100
AcDbEntity
8
0
62
256
100
AcDbVertex
100
AcDb3dPolylineVertex
10
1312.5
20
300.600006103516
30
0.0
70
32
0
VERTEX
5
25
100
AcDbEntity
8
0
62
256
100
AcDbVertex
100
AcDb3dPolylineVertex
10
1355.19995117188
20
345.700012207031
30
0.0
70
32
0
VERTEX
5
26
100
AcDbEntity
8
0
62
256
100
AcDbVertex
100
AcDb3dPolylineVertex
10
1424.0
20
397.899993896484
30
0.0
70
32
0
VERTEX
5
27
100
AcDbEntity
8
0
62
256
100
AcDbVertex
100
AcDb3dPolylineVertex
10
1457.19995117188
20
435.799987792969
30
0.0
70
32
0
VERTEX
5
28
100
AcDbEntity
8
0
62
256
100
AcDbVertex
100
AcDb3dPolylineVertex
10
1492.80004882813
20
483.299987792969
30
0.0
70
32
0
VERTEX
5
29
100
AcDbEntity
8
0
62
256
100
AcDbVertex
100
AcDb3dPolylineVertex
10
1556.80004882813
20
518.900024414063
30
0.0
70
32
0
VERTEX
5
2A
100
AcDbEntity
8
0
62
256
100
AcDbVertex
100
AcDb3dPolylineVertex
10
1592.40002441406
20
552.099975585938
30
0.0
70
32
0
VERTEX
5
2B
100
AcDbEntity
8
0
62
256
100
AcDbVertex
100
AcDb3dPolylineVertex
10
1623.30004882813
20
573.5
30
0.0
70
32
0
VERTEX
5
2C
100
AcDbEntity
8
0
62
256
100
AcDbVertex
100
AcDb3dPolylineVertex
10
1592.40002441406
20
628.0
30
0.0
70
32
0
VERTEX
5
2D
100
AcDbEntity
8
0
62
256
100
AcDbVertex
100
AcDb3dPolylineVertex
10
1568.69995117188
20
651.700012207031
30
0.0
70
32
0
VERTEX
5
2E
100
AcDbEntity
8
0
62
256
100
AcDbVertex
100
AcDb3dPolylineVertex
10
1540.19995117188
20
670.700012207031
30
0.0
70
32
0
VERTEX
5
2F
100
AcDbEntity
8
0
62
256
100
AcDbVertex
100
AcDb3dPolylineVertex
10
1568.69995117188
20
666.0
30
0.0
70
32
0
VERTEX
5
30
100
AcDbEntity
8
0
62
256
100
AcDbVertex
100
AcDb3dPolylineVertex
10
1597.19995117188
20
647.0
30
0.0
70
32
0
VERTEX
5
31
100
AcDbEntity
8
0
62
256
100
AcDbVertex
100
AcDb3dPolylineVertex
10
1637.5
20
599.599975585938
30
0.0
70
32
0
VERTEX
5
32
100
AcDbEntity
8
0
62
256
100
AcDbVertex
100
AcDb3dPolylineVertex
10
1682.59997558594
20
623.299987792969
30
0.0
70
32
0
VERTEX
5
33
100
AcDbEntity
8
0
62
256
100
AcDbVertex
100
AcDb3dPolylineVertex
10
1744.30004882813
20
630.400024414063
30
0.0
70
32
0
VERTEX
5
34
100
AcDbEntity
8
0
62
256
100
AcDbVertex
100
AcDb3dPolylineVertex
10
1794.09997558594
20
613.799987792969
30
0.0
70
32
0
VERTEX
5
35
100
AcDbEntity
8
0
62
256
100
AcDbVertex
100
AcDb3dPolylineVertex
10
1829.69995117188
20
616.200012207031
30
0.0
70
32
0
VERTEX
5
36
100
AcDbEntity
8
0
62
256
100
AcDbVertex
100
AcDb3dPolylineVertex
10
1846.30004882813
20
644.599975585938
30
0.0
70
32
0
VERTEX
5
37
100
AcDbEntity
8
0
62
256
100
AcDbVertex
100
AcDb3dPolylineVertex
10
1841.5
20
685.0
30
0.0
70
32
0
VERTEX
5
38
100
AcDbEntity
8
0
62
256
100
AcDbVertex
100
AcDb3dPolylineVertex
10
1791.69995117188
20
720.5
30
0.0
70
32
0
VERTEX
5
39
100
AcDbEntity
8
0
62
256
100
AcDbVertex
100
AcDb3dPolylineVertex
10
1751.40002441406
20
760.900024414063
30
0.0
70
32
0
VERTEX
5
3A
100
AcDbEntity
8
0
62
256
100
AcDbVertex
100
AcDb3dPolylineVertex
10
1725.30004882813
20
810.700012207031
30
0.0
70
32
0
VERTEX
5
3B
100
AcDbEntity
8
0
62
256
100
AcDbVertex
100
AcDb3dPolylineVertex
10
1720.5
20
848.700012207031
30
0.0
70
32
0
VERTEX
5
3C
100
AcDbEntity
8
0
62
256
100
AcDbVertex
100
AcDb3dPolylineVertex
10
1732.40002441406
20
896.099975585938
30
0.0
70
32
0
VERTEX
5
3D
100
AcDbEntity
8
0
62
256
100
AcDbVertex
100
AcDb3dPolylineVertex
10
1765.59997558594
20
931.700012207031
30
0.0
70
32
0
VERTEX
5
3E
100
AcDbEntity
8
0
62
256
100
AcDbVertex
100
AcDb3dPolylineVertex
10
1813.09997558594
20
964.900024414063
30
0.0
70
32
0
VERTEX
5
3F
100
AcDbEntity
8
0
62
256
100
AcDbVertex
100
AcDb3dPolylineVertex
10
1827.30004882813
20
1002.90002441406
30
0.0
70
32
0
VERTEX
5
40
100
AcDbEntity
8
0
62
256
100
AcDbVertex
100
AcDb3dPolylineVertex
10
1808.30004882813
20
1057.40002441406
30
0.0
70
32
0
VERTEX
5
41
100
AcDbEntity
8
0
62
256
100
AcDbVertex
100
AcDb3dPolylineVertex
10
1753.80004882813
20
1090.69995117188
30
0.0
70
32
0
VERTEX
5
42
100
AcDbEntity
8
0
62
256
100
AcDbVertex
100
AcDb3dPolylineVertex
10
1722.90002441406
20
1133.40002441406
30
0.0
70
32
0
VERTEX
5
43
100
AcDbEntity
8
0
62
256
100
AcDbVertex
100
AcDb3dPolylineVertex
10
1713.40002441406
20
1190.30004882813
30
0.0
70
32
0
VERTEX
5
44
100
AcDbEntity
8
0
62
256
100
AcDbVertex
100
AcDb3dPolylineVertex
10
1722.90002441406
20
1261.5
30
0.0
70
32
0
VERTEX
5
45
100
AcDbEntity
8
0
62
256
100
AcDbVertex
100
AcDb3dPolylineVertex
10
1746.59997558594
20
1327.90002441406
30
0.0
70
32
0
VERTEX
5
46
100
AcDbEntity
8
0
62
256
100
AcDbVertex
100
AcDb3dPolylineVertex
10
1789.30004882813
20
1392.0
30
0.0
70
32
0
VERTEX
5
47
100
AcDbEntity
8
0
62
256
100
AcDbVertex
100
AcDb3dPolylineVertex
10
1803.59997558594
20
1437.0
30
0.0
70
32
0
VERTEX
5
48
100
AcDbEntity
8
0
62
256
100
AcDbVertex
100
AcDb3dPolylineVertex
10
1806.0
20
1470.30004882813
30
0.0
70
32
0
VERTEX
5
49
100
AcDbEntity
8
0
62
256
100
AcDbVertex
100
AcDb3dPolylineVertex
10
1789.30004882813
20
1612.59997558594
30
0.0
70
32
0
VERTEX
5
4A
100
AcDbEntity
8
0
62
256
100
AcDbVertex
100
AcDb3dPolylineVertex
10
1770.40002441406
20
1705.09997558594
30
0.0
70
32
0
VERTEX
5
4B
100
AcDbEntity
8
0
62
256
100
AcDbVertex
100
AcDb3dPolylineVertex
10
1784.59997558594
20
1857.0
30
0.0
70
32
0
VERTEX
5
4C
100
AcDbEntity
8
0
62
256
100
AcDbVertex
100
AcDb3dPolylineVertex
10
1770.40002441406
20
1909.19995117188
30
0.0
70
32
0
VERTEX
5
4D
100
AcDbEntity
8
0
62
256
100
AcDbVertex
100
AcDb3dPolylineVertex
10
1737.19995117188
20
1928.09997558594
30
0.0
70
32
0
VERTEX
5
4E
100
AcDbEntity
8
0
62
256
100
AcDbVertex
100
AcDb3dPolylineVertex
10
1663.59997558594
20
1885.40002441406
30
0.0
70
32
0
VERTEX
5
4F
100
AcDbEntity
8
0
62
256
100
AcDbVertex
100
AcDb3dPolylineVertex
10
1609.0
20
1838.0
30
0.0
70
32
0
VERTEX
5
50
100
AcDbEntity
8
0
62
256
100
AcDbVertex
100
AcDb3dPolylineVertex
10
1547.40002441406
20
1809.5
30
0.0
70
32
0
VERTEX
5
51
100
AcDbEntity
8
0
62
256
100
AcDbVertex
100
AcDb3dPolylineVertex
10
1483.30004882813
20
1790.5
30
0.0
70
32
0
VERTEX
5
52
100
AcDbEntity
8
0
62
256
100
AcDbVertex
100
AcDb3dPolylineVertex
10
1329.09997558594
20
1719.40002441406
30
0.0
70
32
0
VERTEX
5
53
100
AcDbEntity
8
0
62
256
100
AcDbVertex
100
AcDb3dPolylineVertex
10
1191.5
20
1638.69995117188
30
0.0
70
32
0
VERTEX
5
54
100
AcDbEntity
8
0
62
256
100
AcDbVertex
100
AcDb3dPolylineVertex
10
1106.09997558594
20
1605.5
30
0.0
70
32
0
VERTEX
5
55
100
AcDbEntity
8
0
62
256
100
AcDbVertex
100
AcDb3dPolylineVertex
10
1037.30004882813
20
1596.0
30
0.0
70
32
0
VERTEX
5
56
100
AcDbEntity
8
0
62
256
100
AcDbVertex
100
AcDb3dPolylineVertex
10
942.400024414063
20
1603.09997558594
30
0.0
70
32
0
VERTEX
5
57
100
AcDbEntity
8
0
62
256
100
AcDbVertex
100
AcDb3dPolylineVertex
10
840.400024414063
20
1643.40002441406
30
0.0
70
32
0
VERTEX
5
58
100
AcDbEntity
8
0
62
256
100
AcDbVertex
100
AcDb3dPolylineVertex
10
750.200012207031
20
1709.90002441406
30
0.0
70
32
0
VERTEX
5
59
100
AcDbEntity
8
0
62
256
100
AcDbVertex
100
AcDb3dPolylineVertex
10
612.599975585938
20
1788.19995117188
30
0.0
70
32
0
VERTEX
5
5A
100
AcDbEntity
8
0
62
256
100
AcDbVertex
100
AcDb3dPolylineVertex
10
527.200012207031
20
1833.19995117188
30
0.0
70
32
0
VERTEX
5
5B
100
AcDbEntity
8
0
62
256
100
AcDbVertex
100
AcDb3dPolylineVertex
10
375.399993896484
20
1949.5
30
0.0
70
32
0
VERTEX
5
5C
100
AcDbEntity
8
0
62
256
100
AcDbVertex
100
AcDb3dPolylineVertex
10
308.899993896484
20
1959.0
30
0.0
70
32
0
VERTEX
5
5D
100
AcDbEntity
8
0
62
256
100
AcDbVertex
100
AcDb3dPolylineVertex
10
278.100006103516
20
1944.69995117188
30
0.0
70
32
0
VERTEX
5
5E
100
AcDbEntity
8
0
62
256
100
AcDbVertex
100
AcDb3dPolylineVertex
10
252.0
20
1890.19995117188
30
0.0
70
32
0
VERTEX
5
5F
100
AcDbEntity
8
0
62
256
100
AcDbVertex
100
AcDb3dPolylineVertex
10
259.100006103516
20
1835.59997558594
30
0.0
70
32
0
VERTEX
5
60
100
AcDbEntity
8
0
62
256
100
AcDbVertex
100
AcDb3dPolylineVertex
10
297.100006103516
20
1747.80004882813
30
0.0
70
32
0
VERTEX
5
61
100
AcDbEntity
8
0
62
256
100
AcDbVertex
100
AcDb3dPolylineVertex
10
301.799987792969
20
1676.69995117188
30
0.0
70
32
0
VERTEX
5
62
100
AcDbEntity
8
0
62
256
100
AcDbVertex
100
AcDb3dPolylineVertex
10
297.100006103516
20
1617.30004882813
30
0.0
70
32
0
VERTEX
5
63
100
AcDbEntity
8
0
62
256
100
AcDbVertex
100
AcDb3dPolylineVertex
10
259.100006103516
20
1541.40002441406
30
0.0
70
32
0
VERTEX
5
64
100
AcDbEntity
8
0
62
256
100
AcDbVertex
100
AcDb3dPolylineVertex
10
244.899993896484
20
1482.09997558594
30
0.0
70
32
0
VERTEX
5
65
100
AcDbEntity
8
0
62
256
100
AcDbVertex
100
AcDb3dPolylineVertex
10
247.199996948242
20
1420.40002441406
30
0.0
70
32
0
VERTEX
5
66
100
AcDbEntity
8
0
62
256
100
AcDbVertex
100
AcDb3dPolylineVertex
10
244.899993896484
20
1311.30004882813
30
0.0
70
32
0
VERTEX
5
67
100
AcDbEntity
8
0
62
256
100
AcDbVertex
100
AcDb3dPolylineVertex
10
237.699996948242
20
1271.0
30
0.0
70
32
0
VERTEX
5
68
100
AcDbEntity
8
0
62
256
100
AcDbVertex
100
AcDb3dPolylineVertex
10
171.300003051758
20
1135.69995117188
30
0.0
70
32
0
VERTEX
5
69
100
AcDbEntity
8
0
62
256
100
AcDbVertex
100
AcDb3dPolylineVertex
10
154.699996948242
20
1045.59997558594
30
0.0
70
32
0
VERTEX
5
6A
100
AcDbEntity
8
0
62
256
100
AcDbVertex
100
AcDb3dPolylineVertex
10
166.600006103516
20
991.0
30
0.0
70
32
0
VERTEX
5
6B
100
AcDbEntity
8
0
62
256
100
AcDbVertex
100
AcDb3dPolylineVertex
10
211.699996948242
20
889.0
30
0.0
70
32
0
VERTEX
5
6C
100
AcDbEntity
8
0
62
256
100
AcDbVertex
100
AcDb3dPolylineVertex
10
204.5
20
834.400024414063
30
0.0
70
32
0
VERTEX
5
6D
100
AcDbEntity
8
0
62
256
100
AcDbVertex
100
AcDb3dPolylineVertex
10
216.399993896484
20
791.700012207031
30
0.0
70
32
0
VERTEX
5
6E
100
AcDbEntity
8
0
62
256
100
AcDbVertex
100
AcDb3dPolylineVertex
10
249.600006103516
20
763.299987792969
30
0.0
70
32
0
VERTEX
5
6F
100
AcDbEntity
8
0
62
256
100
AcDbVertex
100
AcDb3dPolylineVertex
10
306.5
20
753.799987792969
30
0.0
70
32
0
VERTEX
5
70
100
AcDbEntity
8
0
62
256
100
AcDbVertex
100
AcDb3dPolylineVertex
10
346.899993896484
20
746.599975585938
30
0.0
70
32
0
VERTEX
5
71
100
AcDbEntity
8
0
62
256
100
AcDbVertex
100
AcDb3dPolylineVertex
10
373.0
20
708.700012207031
30
0.0
70
32
0
VERTEX
5
72
100
AcDbEntity
8
0
62
256
100
AcDbVertex
100
AcDb3dPolylineVertex
10
370.600006103516
20
675.5
30
0.0
70
32
0
VERTEX
5
73
100
AcDbEntity
8
0
62
256
100
AcDbVertex
100
AcDb3dPolylineVertex
10
323.200012207031
20
620.900024414063
30
0.0
70
32
0
VERTEX
5
74
100
AcDbEntity
8
0
62
256
100
AcDbVertex
100
AcDb3dPolylineVertex
10
311.299987792969
20
582.900024414063
30
0.0
70
32
0
VERTEX
5
75
100
AcDbEntity
8
0
62
256
100
AcDbVertex
100
AcDb3dPolylineVertex
10
323.200012207031
20
547.400024414063
30
0.0
70
32
0
VERTEX
5
76
100
AcDbEntity
8
0
62
256
100
AcDbVertex
100
AcDb3dPolylineVertex
10
358.700012207031
20
530.700012207031
30
0.0
70
32
0
VERTEX
5
77
100
AcDbEntity
8
0
62
256
100
AcDbVertex
100
AcDb3dPolylineVertex
10
448.899993896484
20
526.0
30
0.0
70
32
0
VERTEX
5
78
100
AcDbEntity
8
0
62
256
100
AcDbVertex
100
AcDb3dPolylineVertex
10
489.200012207031
20
497.5
30
0.0
70
32
0
VERTEX
5
79
100
AcDbEntity
8
0
62
256
100
AcDbVertex
100
AcDb3dPolylineVertex
10
524.799987792969
20
443.0
30
0.0
70
32
0
VERTEX
5
7A
100
AcDbEntity
8
0
62
256
100
AcDbVertex
100
AcDb3dPolylineVertex
10
569.900024414063
20
312.5
30
0.0
70
32
0
VERTEX
5
7B
100
AcDbEntity
8
0
62
256
100
AcDbVertex
100
AcDb3dPolylineVertex
10
596.0
20
257.899993896484
30
0.0
70
32
0
VERTEX
5
7C
100
AcDbEntity
8
0
62
256
100
AcDbVertex
100
AcDb3dPolylineVertex
10
695.599975585938
20
179.600006103516
30
0.0
70
32
0
VERTEX
5
7D
100
AcDbEntity
8
0
62
256
100
AcDbVertex
100
AcDb3dPolylineVertex
10
719.400024414063
20
151.199996948242
30
0.0
70
32
0
VERTEX
5
7E
100
AcDbEntity
8
0
62
256
100
AcDbVertex
100
AcDb3dPolylineVertex
10
754.900024414063
20
63.4000015258789
30
0.0
70
32
0
VERTEX
5
7F
100
AcDbEntity
8
0
62
256
100
AcDbVertex
100
AcDb3dPolylineVertex
10
788.200012207031
20
44.4000015258789
30
0.0
70
32
0
VERTEX
5
80
100
AcDbEntity
8
0
62
256
100
AcDbVertex
100
AcDb3dPolylineVertex
10
833.200012207031
20
44.4000015258789
30
0.0
70
32
0
VERTEX
5
81
100
AcDbEntity
8
0
62
256
100
AcDbVertex
100
AcDb3dPolylineVertex
10
852.200012207031
20
63.4000015258789
30
0.0
70
32
0
VERTEX
5
82
100
AcDbEntity
8
0
62
256
100
AcDbVertex
100
AcDb3dPolylineVertex
10
885.400024414063
20
151.199996948242
30
0.0
70
32
0
VERTEX
5
83
100
AcDbEntity
8
0
62
256
100
AcDbVertex
100
AcDb3dPolylineVertex
10
897.299987792969
20
179.600006103516
30
0.0
70
32
0
VERTEX
5
84
100
AcDbEntity
8
0
62
256
100
AcDbVertex
100
AcDb3dPolylineVertex
10
935.299987792969
20
217.600006103516
30
0.0
70
32
0
VERTEX
5
85
100
AcDbEntity
8
0
62
256
100
AcDbVertex
100
AcDb3dPolylineVertex
10
987.5
20
241.300003051758
30
0.0
70
32
0
VERTEX
5
86
100
AcDbEntity
8
0
62
256
100
AcDbVertex
100
AcDb3dPolylineVertex
10
1032.5
20
243.699996948242
30
0.0
70
32
0
VERTEX
5
87
100
AcDbEntity
8
0
62
256
100
AcDbVertex
100
AcDb3dPolylineVertex
10
1053.90002441406
20
250.800003051758
30
0.0
70
32
0
VERTEX
5
88
100
AcDbEntity
8
0
62
256
100
AcDbVertex
100
AcDb3dPolylineVertex
10
1115.59997558594
20
227.100006103516
30
0.0
70
32
0
VERTEX
5
89
100
AcDbEntity
8
0
62
256
100
AcDbVertex
100
AcDb3dPolylineVertex
10
1163.0
20
186.699996948242
30
0.0
70
32
0
VERTEX
5
8A
100
AcDbEntity
8
0
62
256
100
AcDbVertex
100
AcDb3dPolylineVertex
10
1196.19995117188
20
103.699996948242
30
0.0
70
32
0
VERTEX
5
8B
100
AcDbEntity
8
0
62
256
100
AcDbVertex
100
AcDb3dPolylineVertex
10
1217.59997558594
20
70.5
30
0.0
70
32
0
VERTEX
5
8C
100
AcDbEntity
8
0
62
256
100
AcDbVertex
100
AcDb3dPolylineVertex
10
1229.40002441406
20
68.0999984741211
30
0.0
70
32
0
SEQEND
5
8D
100
AcDbEntity
8
0
0
VIEWPORT
5
93
330
8F
100
AcDbEntity
67
1
8
0
62
256
6
ByLayer
370
-1
48
1.0
60
0
100
AcDbViewport
10
0.0
20
0.0
30
0.0
40
297.0
41
210.0
68
1
69
1
12
50.0
22
100.0
13
0.0
23
0.0
14
10.0
24
10.0
15
10.0
25
10.0
16
0.0
26
0.0
36
1.0
17
0.0
27
0.0
37
0.0
42
50.0
43
0.0
44
0.0
45
250.0
50
0.0
51
0.0
72
1000
90
819232
110
0.0
120
0.0
130
0.0
111
1.0
121
0.0
131
0.0
112
0.0
122
1.0
132
0.0
0
ENDSEC
0
SECTION
2
OBJECTS
0
DICTIONARY
5
98
330
0
100
AcDbDictionary
280
0
281
1
3
ACAD_GROUP
350
99
3
ACAD_LAYOUT
350
9A
3
ACAD_MLINESTYLE
350
9E
0
DICTIONARY
5
99
330
98
100
AcDbDictionary
280
0
281
1
0
DICTIONARY
5
9A
330
98
100
AcDbDictionary
280
0
281
1
3
Model
350
1E
3
Layout1
350
94
0
DICTIONARY
5
9E
330
98
100
AcDbDictionary
280
0
281
1
3
Standard
350
19
0
LAYOUT
5
1E
330
9A
100
AcDbPlotSettings
1

2
none_device
4
ISO_A4_(210.00_x_297.00_MM)
6

40
7.5
41
20.0
42
7.5
43
20.0
44
210.0
45
297.0
46
0.0
47
0.0
48
0.0
49
0.0
140
0.0
141
0.0
142
1.0
143
1.0
70
11952
72
1
73
1
74
5
7

75
16
147
1.0
148
0.0
149
0.0
100
AcDbLayout
1
Model
70
1
71
0
10
-20.0
20
-7.5
11
277.0
21
202.5
12
0.0
22
0.0
32
0.0
14
25.7
24
19.5
34
0.0
15
231.3
25
175.5
35
0.0
146
0.0
13
0.0
23
0.0
33
0.0
16
1.0
26
0.0
36
0.0
17
0.0
27
1.0
37
0.0
76
0
330
1A
0
LAYOUT
5
94
330
9A
100
AcDbPlotSettings
1

2
none_device
4
ISO_A4_(210.00_x_297.00_MM)
6

40
7.5
41
20.0
42
7.5
43
20.0
44
210.0
45
297.0
46
0.0
47
0.0
48
0.0
49
0.0
140
0.0
141
0.0
142
1.0
143
1.0
70
688
72
1
73
1
74
5
7

75
16
147
1.0
148
0.0
149
0.0
100
AcDbLayout
1
Layout1
70
1
71
1
10
-20.0
20
-7.5
11
277.0
21
202.5
12
0.0
22
0.0
32
0.0
14
25.7
24
19.5
34
0.0
15
231.3
25
175.5
35
0.0
146
0.0
13
0.0
23
0.0
33
0.0
16
1.0
26
0.0
36
0.0
17
0.0
27
1.0
37
0.0
76
0
330
8F
0
MLINESTYLE
5
19
330
9E
100
AcDbMlineStyle
2
Standard
70
0
3

62
256
51
90.0
52
90.0
71
2
49
-0.5
62
256
6
ByLayer
49
0.5
62
256
6
ByLayer
0
ENDSEC
0
EOF
